<?xml version="1.0" encoding="UTF-8" standalone="no"?>
<!-- Created with Inkscape (http://www.inkscape.org/) -->

<svg
   xmlns:dc="http://purl.org/dc/elements/1.1/"
   xmlns:cc="http://creativecommons.org/ns#"
   xmlns:rdf="http://www.w3.org/1999/02/22-rdf-syntax-ns#"
   xmlns:svg="http://www.w3.org/2000/svg"
   xmlns="http://www.w3.org/2000/svg"
   xmlns:sodipodi="http://sodipodi.sourceforge.net/DTD/sodipodi-0.dtd"
   xmlns:inkscape="http://www.inkscape.org/namespaces/inkscape"
   version="1.1"
   id="svg10"
   width="256"
   height="160"
   viewBox="0 0 256 160"
   sodipodi:docname="1.svg"
   inkscape:version="0.92.5 (2060ec1f9f, 2020-04-08)">
  <metadata
     id="metadata16">
    <rdf:RDF>
      <cc:Work
         rdf:about="">
        <dc:format>image/svg+xml</dc:format>
        <dc:type
           rdf:resource="http://purl.org/dc/dcmitype/StillImage" />
        <dc:title></dc:title>
      </cc:Work>
    </rdf:RDF>
  </metadata>
  <defs
     id="defs14" />
  <sodipodi:namedview
     pagecolor="#ffffff"
     bordercolor="#666666"
     borderopacity="1"
     objecttolerance="10"
     gridtolerance="10"
     guidetolerance="10"
     inkscape:pageopacity="0"
     inkscape:pageshadow="2"
     inkscape:window-width="2736"
     inkscape:window-height="1683"
     id="namedview12"
     showgrid="false"
     inkscape:zoom="7.9453125"
     inkscape:cx="128"
     inkscape:cy="80"
     inkscape:window-x="-14"
     inkscape:window-y="-14"
     inkscape:window-maximized="1"
     inkscape:current-layer="svg10" />
  <path
     style="fill:#000000;stroke-width:0.31999999"
     d="m 129.31618,81.384464 c 0,-30.08 0.10817,-45.44 0.32,-45.44 0.21184,0 0.32,15.36 0.32,45.44 0,30.079996 -0.10816,45.439996 -0.32,45.439996 -0.21183,0 -0.32,-15.36 -0.32,-45.439996 z m -3.84,-0.16 c 0,-31.772445 0.0814,-39.866192 0.4,-39.759997 0.58748,0.195828 0.58748,79.324173 0,79.520003 -0.31857,0.10619 -0.4,-7.98756 -0.4,-39.760006 z m 37.63417,37.335286 c -0.22834,-0.36947 -0.21997,-73.855696 0.008,-74.451027 0.10221,-0.266342 0.31442,-0.484259 0.47159,-0.484259 0.16607,0 0.28576,15.749824 0.28576,37.6 0,23.281186 -0.11466,37.599996 -0.30111,37.599996 -0.16561,0 -0.37473,-0.11912 -0.46472,-0.26471 z m -30.12434,-0.45529 c -0.0825,-0.22 -0.11402,-16.948 -0.07,-37.173333 0.0634,-29.076996 0.16384,-36.801239 0.48012,-36.906666 0.31848,-0.106157 0.4,7.470227 0.4,37.173338 0,35.120611 -0.0818,38.847831 -0.81017,36.906661 z M 95.396185,81.224464 c 0,-24.426665 0.108515,-36.96 0.32,-36.96 0.211485,0 0.32,12.533335 0.32,36.96 0,24.426666 -0.108515,36.959996 -0.32,36.959996 -0.211485,0 -0.32,-12.53333 -0.32,-36.959996 z m 26.408005,32.133506 c -0.33211,-0.87077 -0.0239,-64.457487 0.31199,-64.373528 0.21,0.05248 0.34804,11.102284 0.40155,32.142451 0.0757,29.775187 -0.0189,34.052197 -0.71354,32.231077 z m 37.59199,-32.10684 c 0,-21.457776 0.10877,-32.506666 0.32,-32.506666 0.176,0 0.32322,0.108 0.32716,0.24 0.004,0.132 0.0168,14.707699 0.0287,32.390442 0.0154,22.929654 -0.0785,32.183774 -0.32715,32.266664 -0.25004,0.0833 -0.34868,-9.07917 -0.34868,-32.39044 z M 91.556185,81.22446 c 0,-27.804445 0.05658,-31.52 0.48,-31.52 0.423417,0 0.48,3.715555 0.48,31.52 0,27.80445 -0.05658,31.52 -0.48,31.52 -0.423418,0 -0.48,-3.71555 -0.48,-31.52 z m 7.528464,29.52 c -0.09005,-0.396 -0.128797,-13.955997 -0.0861,-30.133328 0.06121,-23.19071 0.162256,-29.441539 0.477632,-29.546669 0.318121,-0.106041 0.4,6.062218 0.4,30.133331 0,19.572556 -0.110912,30.266666 -0.313904,30.266666 -0.172647,0 -0.387581,-0.324 -0.477632,-0.72 z M 136.67618,81.224464 c 0,-23.836445 0.0819,-29.946035 0.4,-29.84 0.31617,0.105389 0.4,6.35911 0.4,29.84 0,23.480886 -0.0838,29.734616 -0.4,29.839996 -0.3181,0.10604 -0.4,-6.00355 -0.4,-29.839996 z m 60.3074,29.199996 c -0.0839,-0.22 -0.11536,-13.492002 -0.07,-29.493343 0.0651,-22.931213 0.16729,-29.121587 0.48256,-29.226669 0.31808,-0.106013 0.4,5.934247 0.4,29.493351 0,27.844471 -0.091,31.119071 -0.8126,29.226661 z M 61.476185,81.197799 c 0,-23.047104 0.08196,-28.959351 0.4,-28.853351 0.315062,0.105008 0.418685,6.107354 0.48799,28.266666 0.0484,15.473344 0.0097,28.457346 -0.0861,28.853346 -0.684992,2.83302 -0.801894,-1.28779 -0.801894,-28.266661 z m 105.279995,0.02666 c 0,-24.106665 0.0571,-27.36 0.48,-27.36 0.42293,0 0.48,3.253335 0.48,27.36 0,24.106671 -0.0571,27.360001 -0.48,27.360001 -0.42292,0 -0.48,-3.25333 -0.48,-27.360001 z m 26.56,0.16 c 0,-17.706665 0.10921,-26.88 0.32,-26.88 0.2108,0 0.32,9.173335 0.32,26.88 0,17.706666 -0.1092,26.879991 -0.32,26.879991 -0.21079,0 -0.32,-9.173325 -0.32,-26.879991 z M 65.259647,107.40808 c -0.277888,-1.44065 0.09198,-52.903616 0.380224,-52.903616 0.205891,0 0.316314,9.327642 0.316314,26.72 0,16.190503 -0.116855,26.719996 -0.296538,26.719996 -0.163094,0 -0.343094,-0.24137 -0.4,-0.53638 z M 155.55618,81.224464 c 0,-22.968889 0.0573,-26.08 0.48,-26.08 0.42274,0 0.48,3.111111 0.48,26.08 0,22.968886 -0.0573,26.079996 -0.48,26.079996 -0.42273,0 -0.48,-3.11111 -0.48,-26.079996 z m -37.55536,24.897966 c -0.11255,-0.11255 -0.20464,-11.340631 -0.20464,-24.9513 0,-21.783703 0.0575,-24.746666 0.48,-24.746666 0.42254,0 0.48,2.966791 0.48,24.781114 0,13.629613 -0.12391,24.857702 -0.27536,24.951302 -0.15145,0.0936 -0.36745,0.0781 -0.48,-0.0345 z m -15.0313,-0.6313 c -0.11734,-0.11733 -0.21334,-11.133332 -0.21334,-24.48 0,-21.357037 0.0576,-24.266666 0.48,-24.266666 0.42249,0 0.48,2.933335 0.48,24.48 0,13.464 -0.12,24.479996 -0.26666,24.479996 -0.14667,0 -0.36267,-0.096 -0.48,-0.21333 z m 37.54666,-24.293331 c 0,-17.927098 0.0825,-22.559168 0.4,-22.45336 0.31394,0.104624 0.41682,4.964396 0.47818,22.586665 0.0687,19.742056 0.0204,22.453356 -0.4,22.453356 -0.41972,0 -0.47818,-2.76122 -0.47818,-22.586661 z M 87.88382,103.11797 c -0.32945,-0.8619 -0.02381,-43.80956 0.312365,-43.893554 0.434883,-0.108656 0.606339,43.601704 0.172729,44.035314 -0.202332,0.20234 -0.372588,0.15258 -0.485094,-0.14176 z M 200.67618,81.224464 c 0,-18.986665 0.0581,-21.6 0.48,-21.6 0.42193,0 0.48,2.613335 0.48,21.6 0,18.986666 -0.0581,21.599996 -0.48,21.599996 -0.42192,0 -0.48,-2.61333 -0.48,-21.599996 z m -48.96,0 c 0,-18.702221 0.0581,-21.28 0.48,-21.28 0.42186,0 0.48,2.577779 0.48,21.28 0,18.702221 -0.0581,21.279996 -0.48,21.279996 -0.42185,0 -0.48,-2.577775 -0.48,-21.279996 z m -94.079995,0.02666 c 0,-17.917318 0.0576,-20.346656 0.482387,-20.346656 0.425626,0 0.472691,2.378384 0.4,20.213363 -0.06451,15.827213 -0.169184,20.242289 -0.482387,20.346659 -0.317203,0.10571 -0.4,-4.078259 -0.4,-20.213356 z m 48.959995,-0.02666 c 0,-16.156445 0.0828,-20.345734 0.4,-20.24 0.31435,0.104781 0.4,4.43911 0.4,20.24 0,15.80089 -0.0857,20.135216 -0.4,20.239996 -0.3172,0.10574 -0.4,-4.083551 -0.4,-20.239996 z m 82.88,0 c 0,-15.388445 0.0829,-19.38569 0.4,-19.28 0.31406,0.104685 0.4,4.247111 0.4,19.28 0,15.03289 -0.0859,19.175316 -0.4,19.279996 -0.31706,0.10569 -0.4,-3.891551 -0.4,-19.279996 z m -18.88,0 c 0,-16.426666 0.0588,-18.72 0.48,-18.72 0.4212,0 0.48,2.293334 0.48,18.72 0,16.426666 -0.0588,18.72 -0.48,18.72 -0.42119,0 -0.48,-2.293334 -0.48,-18.72 z m -56.33888,13.04 c -0.0797,-22.615267 0.0154,-31.44 0.33888,-31.44 0.20963,0 0.32,6.346666 0.32,18.4 0,12.053335 -0.11037,18.4 -0.32,18.4 -0.19984,0 -0.32709,-2.012589 -0.33888,-5.36 z m -45.274274,4.64 c -0.314582,-0.822054 0.01018,-35.759401 0.333159,-35.840073 0.209789,-0.0524 0.348464,6.17456 0.402643,18.080073 0.05646,12.407962 -0.02272,18.16 -0.250045,18.16 -0.182976,0 -0.401568,-0.18 -0.485757,-0.4 z m 79.042494,-0.64 c -0.0828,-0.22 -0.1143,-8.020042 -0.07,-17.333427 0.0629,-13.204487 0.16871,-16.962771 0.48062,-17.066669 0.31675,-0.105504 0.4,3.502368 0.4,17.333431 0,11.785446 -0.10735,17.466665 -0.33004,17.466665 -0.18152,0 -0.3978,-0.18 -0.48062,-0.4 z m -37.58934,-17.04 c 0,-15.417037 0.13626,-18.25127 0.77994,-16.223222 0.22026,0.693984 0.19359,31.663353 -0.028,32.463222 -0.6036,2.179274 -0.75197,-1.024829 -0.75197,-16.24 z m 33.92,0 c 0,-10.773334 0.11081,-16.48 0.32,-16.48 0.2092,0 0.32,5.706666 0.32,16.48 0,10.773335 -0.1108,16.48 -0.32,16.48 -0.20919,0 -0.32,-5.706665 -0.32,-16.48 z m -60.308712,14.16 c -0.0885,-0.396 -0.127242,-7.043952 -0.0861,-14.773226 0.05805,-10.904268 0.164442,-14.083126 0.474813,-14.186665 0.316185,-0.105482 0.4,2.990057 0.4,14.773226 0,9.53143 -0.113191,14.906665 -0.313904,14.906665 -0.172647,0 -0.386311,-0.324 -0.474813,-0.72 z M 204.51618,81.25113 c 0,-12.796336 0.0593,-14.586666 0.48327,-14.586666 0.42511,0 0.47324,1.739165 0.4,14.453389 -0.0646,11.218435 -0.17279,14.483219 -0.48327,14.586666 -0.31609,0.105324 -0.4,-2.926308 -0.4,-14.453389 z M 53.796185,81.224464 c 0,-12.16 0.06069,-13.92 0.48,-13.92 0.419309,0 0.48,1.76 0.48,13.92 0,12.16 -0.06069,13.92 -0.48,13.92 -0.419309,0 -0.48,-1.76 -0.48,-13.92 z m 131.839995,0 c 0,-12.16 0.0607,-13.92 0.48,-13.92 0.41931,0 0.48,1.76 0.48,13.92 0,12.16 -0.0607,13.92 -0.48,13.92 -0.4193,0 -0.48,-1.76 -0.48,-13.92 z M 72.84255,92.876439 c -0.326413,-0.850612 -0.02413,-23.491975 0.313635,-23.491975 0.434509,0 0.605869,23.202131 0.174544,23.633456 -0.204752,0.204752 -0.374157,0.155655 -0.488179,-0.141481 z M 174.43618,81.224464 c 0,-8.988445 0.085,-11.385005 0.4,-11.28 0.3098,0.103264 0.4,2.647111 0.4,11.28 0,8.63289 -0.0902,11.176736 -0.4,11.28 -0.31501,0.105005 -0.4,-2.291555 -0.4,-11.28 z m 7.52561,9.730013 c -0.32653,-0.850934 -0.0244,-19.65471 0.31439,-19.570237 0.43397,0.108186 0.60446,19.28377 0.17528,19.712954 -0.20572,0.205718 -0.37488,0.156419 -0.48967,-0.142717 z m 26.39439,-9.730013 c 0,-6.08 0.1139,-9.44 0.32,-9.44 0.20611,0 0.32,3.36 0.32,9.44 0,6.08 -0.11389,9.44 -0.32,9.44 -0.2061,0 -0.32,-3.36 -0.32,-9.44 z m -127.999995,0 c 0,-5.866666 0.114153,-9.12 0.32,-9.12 0.205846,0 0.32,3.253334 0.32,9.12 0,5.866666 -0.114154,9.12 -0.32,9.12 -0.205847,0 -0.32,-3.253334 -0.32,-9.12 z m -30.085818,8.16 c -0.08966,-9.862211 0.03951,-16.811229 0.314183,-16.902787 0.223504,-0.0745 0.331635,2.767427 0.331635,8.716122 0,5.67111 -0.1144,8.826665 -0.32,8.826665 -0.176,0 -0.322618,-0.288 -0.325818,-0.64 z m 26.464483,-0.528 c -0.120265,-0.120265 -0.218665,-3.662665 -0.218665,-7.872 0,-5.980345 0.08744,-7.624227 0.4,-7.520185 0.30143,0.100339 0.421203,1.974284 0.486041,7.604627 0.07872,6.835929 -0.05529,8.399648 -0.667376,7.787558 z m 101.54133,-7.632 c 0,-4.373334 0.11659,-6.88 0.32,-6.88 0.20342,0 0.32,2.506666 0.32,6.88 0,4.373335 -0.11658,6.88 -0.32,6.88 -0.20341,0 -0.32,-2.506665 -0.32,-6.88 z m 33.78222,5.062493 c -0.23823,-0.620813 -0.20124,-9.600576 0.0422,-10.234864 0.51299,-1.336826 0.73562,0.174451 0.73562,4.993485 0,4.967856 -0.24616,6.626752 -0.77778,5.241379 z M 46.436185,81.25113 c 0,-3.046544 0.122128,-4.986666 0.313904,-4.986666 0.538989,0 0.673862,1.299709 0.578413,5.573824 -0.06598,2.954679 -0.206413,4.171719 -0.492317,4.266669 -0.30857,0.102477 -0.4,-1.006976 -0.4,-4.853827 z m 169.436095,2.63856 c -0.30755,-0.801466 -0.0261,-5.552522 0.3239,-5.467351 0.42952,0.104525 0.59682,5.213306 0.18425,5.625882 -0.21769,0.217683 -0.38365,0.165907 -0.50815,-0.158531 z M 42.81485,83.736464 c -0.120265,-0.120265 -0.218665,-1.358665 -0.218665,-2.752 0,-1.883875 0.102547,-2.499424 0.4,-2.401069 0.259222,0.08571 0.433437,0.957015 0.495008,2.475658 0.08873,2.188602 -0.164135,3.189616 -0.676343,2.677411 z m 176.94597,-0.654032 c -0.11255,-0.11255 -0.20464,-0.972633 -0.20464,-1.911302 0,-1.303703 0.11334,-1.706666 0.48,-1.706666 0.36786,0 0.48,0.406791 0.48,1.741114 0,1.634755 -0.28624,2.345977 -0.75536,1.876854 z M 38.756185,81.224464 c 0,-1.35111 0.111513,-1.76 0.48,-1.76 0.368486,0 0.48,0.40889 0.48,1.76 0,1.351111 -0.111514,1.76 -0.48,1.76 -0.368487,0 -0.48,-0.408889 -0.48,-1.76 z m 184.639995,0.02666 c 0,-0.982656 0.14126,-1.786656 0.31391,-1.786656 0.72266,0 0.79823,3.202621 0.0812,3.441629 -0.28203,0.09401 -0.39512,-0.379635 -0.39512,-1.654963 z M 31.396185,81.224464 c 0,-0.792 0.144,-1.44 0.32,-1.44 0.176,0 0.32,0.648 0.32,1.44 0,0.792 -0.144,1.44 -0.32,1.44 -0.176,0 -0.32,-0.648 -0.32,-1.44 z m 3.646093,0.98703 c -0.277239,-0.722473 -0.0033,-2.205455 0.433907,-2.349017 0.280921,-0.09225 0.4,0.30527 0.4,1.335322 0,1.40263 -0.466877,1.970166 -0.833907,1.013695 z m 192.130082,-0.26703 c -0.14894,-0.989878 0.0792,-2.16 0.42113,-2.16 0.15548,0 0.28269,0.648 0.28269,1.44 0,1.481271 -0.51067,2.00368 -0.70382,0.72 z m 3.73045,0.320541 c -0.27008,-0.703821 -0.0535,-2.165795 0.33337,-2.25049 0.43856,-0.096 0.607,2.010957 0.1938,2.424151 -0.23042,0.230422 -0.39261,0.176995 -0.52717,-0.173661 z M 23.716185,81.224464 c 0,-0.782221 0.144762,-1.12 0.48,-1.12 0.335238,0 0.48,0.337779 0.48,1.12 0,0.782221 -0.144762,1.12 -0.48,1.12 -0.335238,0 -0.48,-0.337779 -0.48,-1.12 z m 3.84,0 c 0,-0.796445 0.128485,-1.130505 0.4,-1.04 0.22,0.07334 0.4,0.541334 0.4,1.04 0,0.498666 -0.18,0.966666 -0.4,1.04 -0.271515,0.09051 -0.4,-0.243555 -0.4,-1.04 z m 207.039995,0 c 0,-0.782221 0.14477,-1.12 0.48,-1.12 0.33524,0 0.48,0.337779 0.48,1.12 0,0.782221 -0.14476,1.12 -0.48,1.12 -0.33523,0 -0.48,-0.337779 -0.48,-1.12 z m 3.84,0 c 0,-0.796445 0.12849,-1.130505 0.4,-1.04 0.22,0.07334 0.4,0.541334 0.4,1.04 0,0.498666 -0.18,0.966666 -0.4,1.04 -0.27151,0.09051 -0.4,-0.243555 -0.4,-1.04 z m -222.079995,0 c 0,-0.44 0.144,-0.8 0.32,-0.8 0.176,0 0.32,0.36 0.32,0.8 0,0.44 -0.144,0.8 -0.32,0.8 -0.176,0 -0.32,-0.36 -0.32,-0.8 z m 3.52,0 c 0,-0.497779 0.181333,-0.8 0.48,-0.8 0.298666,0 0.48,0.302221 0.48,0.8 0,0.497779 -0.181334,0.8 -0.48,0.8 -0.298667,0 -0.48,-0.302221 -0.48,-0.8 z m 222.399995,0 c 0,-0.44 0.144,-0.8 0.32,-0.8 0.176,0 0.32,0.36 0.32,0.8 0,0.44 -0.144,0.8 -0.32,0.8 -0.176,0 -0.32,-0.36 -0.32,-0.8 z"
     id="path20"
     inkscape:connector-curvature="0" />
</svg>
